<svg aria-hidden="true" style="position:absolute;width:0;height:0;overflow:hidden" xmlns="http://www.w3.org/2000/svg">
  <defs>
    <symbol id="icon-arrow-up" viewBox="0 0 42 42"> 
      <rect x="-0.5" y="0.5" width="41" height="41" rx="20.5" transform="matrix(1 0 0 -1 1 42)" stroke="#FAFAFA" stroke-opacity="0.2"/>
      <path d="M26 23.5L21 18.5L16 23.5" stroke="#FAFAFA" stroke-width="2"/>
    </symbol>
    <symbol id="icon-arrow-down" viewBox="0 0 42 42">
      <rect x="0.5" y="0.5" width="41" height="41" rx="20.5" stroke="#FAFAFA" stroke-opacity="0.2"/>
      <path d="M26 18.5L21 23.5L16 18.5" stroke="#FAFAFA" stroke-width="2"/>
    </symbol>
    <symbol id="icon-arrow-left" viewBox="0 0 68 68">
      <rect x="67.5" y="67.5" width="67" height="67" rx="33.5" transform="rotate(180 67.5 67.5)" stroke="#FAFAFA" stroke-opacity="0.2"/>
      <path d="M44.6667 34H23.3334" stroke="#3B3B3B" stroke-width="2" stroke-linecap="round" stroke-linejoin="round"/>
      <path d="M31.3333 42L23.3333 34L31.3333 26" stroke="#3B3B3B" stroke-width="2" stroke-linecap="round" stroke-linejoin="round"/>
    </symbol>
    <symbol id="icon-arrow-right" viewBox="0 0 68 68">
      <rect x="0.5" y="0.5" width="67" height="67" rx="33.5" stroke="#FAFAFA" stroke-opacity="0.5"/>
      <path d="M23.3333 34H44.6666" stroke="#FAFAFA" stroke-width="2" stroke-linecap="round" stroke-linejoin="round"/>
      <path d="M36.6667 26L44.6667 34L36.6667 42" stroke="#FAFAFA" stroke-width="2" stroke-linecap="round" stroke-linejoin="round"/>
    </symbol>
    <symbol id="icon-services-1" viewBox="0 0 48 48">
      <rect width="48" height="48" rx="10" fill="#ED3B44"/>
      <path d="M30.1626 14H17.8374C17.3749 14 17 14.3749 17 14.8374C17 17.5027 18.0588 20.0588 19.9434 21.9434L21.1626 23.1626C21.2836 23.2836 21.3442 23.3442 21.3875 23.4023C21.6519 23.7569 21.6519 24.2431 21.3875 24.5977C21.3442 24.6558 21.2836 24.7164 21.1626 24.8374L19.9434 26.0566C18.0588 27.9412 17 30.4973 17 33.1626C17 33.6251 17.3749 34 17.8374 34H30.1626C30.6251 34 31 33.6251 31 33.1626C31 30.4973 29.9412 27.9412 28.0566 26.0566L26.8374 24.8374C26.7164 24.7164 26.6558 24.6558 26.6125 24.5977C26.3481 24.2431 26.3481 23.7569 26.6125 23.4023C26.6558 23.3442 26.7164 23.2836 26.8374 23.1626L28.0566 21.9434C29.9412 20.0588 31 17.5027 31 14.8374C31 14.3749 30.6251 14 30.1626 14Z" stroke="#FAFAFA" stroke-width="2" stroke-linecap="round" stroke-linejoin="round"/>
    </symbol>
    <symbol id="icon-services-2" viewBox="0 0 48 48">
      <rect width="48" height="48" rx="10" fill="#ED3B44"/>
      <path d="M18.0944 23.2288C18.0322 22.8282 18 22.4179 18 22C18 17.5817 21.6052 14 26.0526 14C30.4999 14 34.1052 17.5817 34.1052 22C34.1052 22.9981 33.9213 23.9535 33.5852 24.8345C33.5154 25.0175 33.4804 25.109 33.4646 25.1804C33.4489 25.2512 33.4428 25.301 33.4411 25.3735C33.4394 25.4466 33.4493 25.5272 33.4692 25.6883L33.8717 28.9585C33.9153 29.3125 33.9371 29.4895 33.8782 29.6182C33.8266 29.731 33.735 29.8205 33.6211 29.8695C33.4911 29.9254 33.3146 29.8995 32.9617 29.8478L29.7765 29.3809C29.6101 29.3565 29.527 29.3443 29.4512 29.3448C29.3763 29.3452 29.3245 29.3507 29.2511 29.3661C29.177 29.3817 29.0823 29.4172 28.893 29.4881C28.0097 29.819 27.0524 30 26.0526 30C25.6344 30 25.2237 29.9683 24.8227 29.9073M19.6316 34C22.5965 34 25 31.5376 25 28.5C25 25.4624 22.5965 23 19.6316 23C16.6667 23 14.2632 25.4624 14.2632 28.5C14.2632 29.1106 14.3603 29.6979 14.5395 30.2467" stroke="#FAFAFA" stroke-width="2" stroke-linecap="round" stroke-linejoin="round"/>
    </symbol>
  </defs>
</svg>